<?xml version="1.0" encoding="UTF-8"?>
<svg xmlns="http://www.w3.org/2000/svg" xmlns:xlink="http://www.w3.org/1999/xlink" width="342.6pt" height="152.5pt" viewBox="0 0 342.6 152.5" version="1.1">
<g id="surface1">
<path style=" stroke:none;fill-rule:evenodd;fill:rgb(12.939453%,15.696716%,36.863708%);fill-opacity:1;" d="M 0.0664063 152.496094 L 342.605469 152.496094 L 342.605469 -0.00390625 L 0.0664063 -0.00390625 Z M 0.0664063 152.496094 "/>
<path style=" stroke:none;fill-rule:evenodd;fill:rgb(94.53125%,35.693359%,25.488281%);fill-opacity:1;" d="M 129.652344 62.972656 L 106.414063 83.816406 L 48.863281 83.816406 C 43.496094 83.808594 38.3125 85.757813 34.285156 89.300781 L 63.3125 63.257813 L 63.757813 62.863281 L 100.125 30.210938 C 105.988281 24.953125 114.21875 23.210938 121.71875 25.644531 C 129.21875 28.078125 134.847656 34.316406 136.484375 42.011719 C 138.121094 49.703125 135.515625 57.683594 129.652344 62.941406 Z M 129.652344 62.972656 "/>
<path style=" stroke:none;fill-rule:evenodd;fill:rgb(97.65625%,61.521912%,11.376953%);fill-opacity:1;" d="M 70.945313 46.605469 C 70.945313 58.769531 61.058594 68.625 48.863281 68.625 C 36.667969 68.625 26.78125 58.769531 26.78125 46.605469 C 26.78125 34.445313 36.667969 24.589844 48.863281 24.589844 C 61.058594 24.589844 70.945313 34.445313 70.945313 46.605469 Z M 70.945313 46.605469 "/>
<path style=" stroke:none;fill-rule:evenodd;fill:rgb(100%,100%,100%);fill-opacity:1;" d="M 48.863281 83.816406 C 43.496094 83.808594 38.3125 85.757813 34.285156 89.300781 L 34.101563 89.46875 C 25.035156 97.601563 24.292969 111.519531 32.449219 120.558594 C 40.601563 129.601563 54.5625 130.335938 63.628906 122.207031 L 106.421875 83.820313 L 48.863281 83.8125 Z M 48.863281 83.816406 "/>
<path style=" stroke:none;fill-rule:evenodd;fill:rgb(0%,71.289063%,74.021912%);fill-opacity:1;" d="M 106.421875 83.816406 L 63.621094 122.203125 C 59.570313 125.835938 54.308594 127.839844 48.859375 127.824219 L 114.886719 127.824219 C 127.445313 127.621094 136.617188 117.777344 136.617188 105.808594 C 136.617188 93.839844 126.945313 83.984375 114.886719 83.792969 Z M 106.421875 83.816406 "/>
<path style=" stroke:none;fill-rule:evenodd;fill:rgb(100%,100%,100%);fill-opacity:1;" d="M 168.589844 109.433594 C 166.753906 109.5 164.972656 108.777344 163.710938 107.449219 C 162.472656 106.105469 161.8125 104.335938 161.871094 102.519531 C 161.855469 100.6875 162.3125 98.882813 163.195313 97.273438 C 163.972656 95.835938 164.921875 94.5 166.023438 93.289063 L 193.34375 62.585938 L 169.53125 62.585938 C 167.222656 62.585938 165.570313 61.796875 164.667969 60.238281 C 163.785156 58.667969 163.347656 56.890625 163.394531 55.09375 C 163.332031 53.359375 163.832031 51.65625 164.824219 50.230469 C 165.808594 48.882813 167.410156 48.117188 169.082031 48.195313 L 211.15625 48.195313 C 212.9375 48.113281 214.671875 48.761719 215.957031 49.984375 C 217.152344 51.167969 217.757813 52.855469 217.757813 54.992188 C 217.808594 56.65625 217.460938 58.304688 216.738281 59.808594 C 216.050781 61.117188 215.183594 62.328125 214.167969 63.40625 L 185.714844 95.035156 L 212.671875 95.035156 C 214.296875 94.996094 215.839844 95.726563 216.832031 97.003906 C 217.886719 98.433594 218.417969 100.175781 218.339844 101.945313 C 218.417969 103.789063 217.972656 105.617188 217.054688 107.222656 C 216.132813 108.691406 214.5 109.4375 212.203125 109.4375 Z M 168.589844 109.433594 "/>
<path style=" stroke:none;fill-rule:evenodd;fill:rgb(100%,100%,100%);fill-opacity:1;" d="M 234.683594 110.242188 C 227.195313 110.242188 225.636719 106.417969 225.636719 103.214844 L 225.636719 56.449219 C 225.636719 54.003906 226.375 52.023438 227.847656 50.566406 C 229.316406 49.113281 231.65625 48.371094 234.8125 48.371094 C 237.472656 48.371094 239.574219 48.972656 241.074219 50.164063 C 242.574219 51.355469 243.402344 53.277344 243.402344 55.75 L 243.402344 102.96875 C 243.402344 105.539063 242.589844 107.425781 240.984375 108.589844 C 239.378906 109.753906 237.3125 110.242188 234.683594 110.242188 Z M 234.683594 43.351563 C 231.765625 43.351563 229.371094 42.5 227.5625 40.824219 C 225.753906 39.152344 224.808594 36.839844 224.808594 34 C 224.738281 31.484375 225.734375 29.054688 227.550781 27.300781 C 229.34375 25.554688 231.75 24.660156 234.683594 24.660156 C 237.105469 24.664063 239.457031 25.453125 241.382813 26.910156 C 243.488281 28.449219 244.558594 30.84375 244.558594 34.023438 C 244.558594 36.863281 243.628906 39.164063 241.804688 40.855469 C 239.976563 42.546875 237.585938 43.367188 234.683594 43.367188 Z M 234.683594 43.351563 "/>
<path style=" stroke:none;fill-rule:evenodd;fill:rgb(100%,100%,100%);fill-opacity:1;" d="M 262.925781 128.164063 C 255.925781 128.164063 254.441406 124.277344 254.441406 121.019531 L 254.441406 54.863281 C 254.382813 52.789063 255.183594 50.785156 256.660156 49.320313 C 258.125 47.863281 260.46875 47.121094 263.625 47.121094 C 265.589844 47.101563 267.527344 47.550781 269.28125 48.425781 C 271.140625 49.375 272.109375 51.238281 272.109375 53.90625 C 272.484375 53.476563 272.890625 53.035156 273.324219 52.582031 C 274.511719 51.378906 275.84375 50.328125 277.285156 49.445313 C 280.785156 47.269531 284.84375 46.148438 288.972656 46.207031 C 292.929688 46.128906 296.847656 46.972656 300.417969 48.667969 C 303.6875 50.269531 306.53125 52.613281 308.726563 55.503906 C 311.015625 58.59375 312.683594 62.09375 313.644531 65.8125 C 314.746094 70.011719 315.289063 74.339844 315.253906 78.679688 C 315.292969 83.101563 314.671875 87.503906 313.410156 91.742188 C 312.292969 95.507813 310.460938 99.027344 308.015625 102.109375 C 305.65625 105.011719 302.667969 107.347656 299.269531 108.9375 C 295.578125 110.621094 291.550781 111.460938 287.484375 111.394531 C 284.765625 111.472656 282.050781 111.09375 279.457031 110.269531 C 277.59375 109.644531 275.820313 108.773438 274.191406 107.679688 C 273.304688 107.082031 272.488281 106.390625 271.757813 105.617188 L 271.757813 120.683594 C 271.757813 123.300781 271.039063 125.234375 269.621094 126.425781 C 268.203125 127.617188 266.019531 128.164063 262.925781 128.164063 Z M 284.449219 61.191406 C 282.523438 61.144531 280.617188 61.59375 278.914063 62.492188 C 277.308594 63.394531 275.9375 64.648438 274.898438 66.160156 C 273.730469 67.871094 272.878906 69.773438 272.378906 71.78125 C 271.796875 74.113281 271.507813 76.511719 271.527344 78.914063 C 271.527344 84.390625 272.65625 88.78125 274.917969 91.96875 C 277.183594 95.15625 280.253906 96.644531 284.472656 96.644531 C 288.691406 96.644531 291.761719 95.046875 293.894531 91.761719 C 296.023438 88.472656 297.160156 84.09375 297.160156 78.914063 C 297.167969 76.519531 296.871094 74.128906 296.28125 71.804688 C 295.78125 69.804688 294.949219 67.90625 293.8125 66.183594 C 292.804688 64.667969 291.449219 63.414063 289.855469 62.523438 C 288.199219 61.625 286.335938 61.167969 284.449219 61.191406 Z M 284.449219 61.191406 "/>
</g>
</svg>
