<?xml version="1.0" encoding="utf-8"?>
<!-- Generator: Adobe Illustrator 25.0.1, SVG Export Plug-In . SVG Version: 6.00 Build 0)  -->
<svg version="1.0" id="katman_1" xmlns="http://www.w3.org/2000/svg" xmlns:xlink="http://www.w3.org/1999/xlink" x="0px" y="0px"
	 viewBox="0 0 662 448" style="enable-background:new 0 0 662 448;" xml:space="preserve">
<style type="text/css">
	.st0{fill:#1A0826;}
	.st1{fill:#AA8FFF;}
</style>
<path class="st0" d="M90.3,285.2l4.4,35.8h153.7l-5-41h-71.7l-0.6-5.1l66-46.1l-4.4-35.8H79l5,41h71.8l0.6,5.1L90.3,285.2z"/>
<path class="st1" d="M250.6,193l15.7,128h153.9l-15.7-128H250.6z"/>
<path class="st0" d="M581.5,239.1c-3.5-28.8-26.2-46.2-56.9-46.1H422.3L438,321h46l-3.2-25.6h48.7
	C568,295.4,585.5,271.5,581.5,239.1z M524.6,259.5l-48.1,0.1l-3.8-30.7l48.4,0c11.4,0.1,17.2,6.5,18.1,15.3
	C539.9,249.8,537.3,259.5,524.6,259.5L524.6,259.5z"/>
<path d="M301.4,175.9c8.1-8.7,6.7-23.2-3.2-32.3c-9.8-9.2-24.4-9.5-32.5-0.9c-8.1,8.7-6.7,23.2,3.2,32.3
	C278.8,184.2,293.3,184.6,301.4,175.9z"/>
</svg>
